# xmcd
#
# Track frame offsets: 
#        225
#        16054
#        37390
#        58045
#        73913
#        91027
#        109360
#        122001
#        137100
#        156858
#
# Disc length: 2331 seconds
#
# Revision: 2
# Processed by: cddbd v1.5.2PL0 Copyright (c) Steve Scherf et al.
# Submitted via: ExactAudioCopy v0.95b3
#
DISCID=8d09180a
DTITLE=Jorge Palma - Deixa-me Rir
DYEAR=1996
DGENRE=Pop
TTITLE0=Deixa-me Rir
TTITLE1=O Lado Errado da Noite
TTITLE2=Onde Estás Tu, Mamã? (Canção de Lisboa)
TTITLE3=Olá, Tenho Que Ir Andando
TTITLE4=Jeremias, o Fora-da-Lei
TTITLE5=Estrela do Mar
TTITLE6=Até Mais Não Poder Ser
TTITLE7=Tudo Bem (Os Morangos Estão Lá)
TTITLE8=A Caminho de Casa
TTITLE9=Quarto Minguante
EXTD=\nYEAR: 1996  ID3G:   0
EXTT0=
EXTT1=
EXTT2=
EXTT3=
EXTT4=
EXTT5=
EXTT6=
EXTT7=
EXTT8=
EXTT9=
PLAYORDER=
